<svg height="512pt" viewBox="-38 0 512 512" width="512pt" xmlns="http://www.w3.org/2000/svg"><path d="m217.679688 0c-41.878907 13.960938-61.300782 89.667969-67.296876 118.765625-.613281 2.898437-2.660156 5.28125-5.429687 6.324219-2.773437 1.046875-5.882813.605468-8.253906-1.167969-8.140625-6.351563-15.945313-13.121094-23.378907-20.28125-2.042968-1.964844-4.917968-2.796875-7.691406-2.226563-2.773437.566407-5.089844 2.464844-6.195312 5.074219-11.367188 28.886719-4.511719 62.132813.867187 80.035157.890625 2.949218.148438 6.152343-1.945312 8.410156-2.097657 2.257812-5.234375 3.234375-8.242188 2.566406-26.671875-7.351562-52.773437-16.632812-78.101562-27.769531-2.769531-1.199219-5.964844-.859375-8.417969.894531-2.457031 1.757812-3.808594 4.671875-3.5664062 7.679688 2.9531252 27.589843 28.7265622 62.734374 39.4414062 76.316406 1.601562 2.03125 2.214844 4.671875 1.667969 7.203125-.542969 2.527343-2.191407 4.683593-4.488281 5.875-4.847657 2.28125-10.140626 3.46875-15.5 3.46875-3.449219.097656-6.511719 2.226562-7.804688 5.429687-1.292969 3.199219-.5625 6.859375 1.851562 9.324219 14.792969 14.039063 30.628907 26.9375 47.367188 38.589844 2.359375 1.648437 3.742188 4.367187 3.683594 7.246093-.054688 2.878907-1.546875 5.539063-3.972656 7.089844-2.4375 1.492188-4.964844 2.832032-7.566407 4.019532-2.511719 1.128906-4.339843 3.378906-4.925781 6.070312s.140625 5.5 1.957031 7.570312c18.390625 19.617188 39.152344 36.867188 61.804688 51.355469 30.992187 20.375 70.203125 23.644531 104.136719 8.679688 33.9375 14.964843 73.144531 11.695312 104.136718-8.679688 22.652344-14.488281 43.414063-31.742187 61.804688-51.363281 1.816406-2.070312 2.542968-4.878906 1.957031-7.570312-.585937-2.691407-2.414063-4.945313-4.925781-6.070313-2.601563-1.1875-5.128906-2.527344-7.566406-4.019531-2.425782-1.554688-3.914063-4.214844-3.972657-7.089844-.058593-2.878906 1.324219-5.597656 3.683594-7.246094 16.742187-11.652344 32.574219-24.550781 47.367187-38.589844 2.417969-2.464843 3.144532-6.125 1.851563-9.328124-1.289063-3.199219-4.355469-5.328126-7.804687-5.425782-5.359376 0-10.652344-1.1875-15.5-3.472656-2.296876-1.1875-3.941407-3.34375-4.488282-5.875-.546875-2.527344.066406-5.167969 1.667969-7.199219 10.71875-13.574219 36.449219-48.71875 39.441406-76.316406.242188-3.007813-1.109375-5.921875-3.5625-7.679687-2.457031-1.757813-5.652343-2.09375-8.421875-.894532-25.328125 11.136719-51.429687 20.417969-78.101562 27.769532-3.003906.660156-6.136719-.320313-8.226563-2.578126-2.089843-2.257812-2.832031-5.453124-1.945312-8.398437 5.375-17.910156 12.21875-51.15625.871093-80.035156-1.105468-2.609375-3.421874-4.507813-6.195312-5.078125-2.773438-.566406-5.652344.265625-7.691406 2.230468-7.4375 7.160157-15.238282 13.929688-23.378906 20.28125-2.371094 1.769532-5.484376 2.210938-8.253907 1.167969s-4.816406-3.425781-5.429687-6.324219c-6.015625-29.089843-25.4375-104.796874-67.316406-118.757812zm0 0" fill="#c2615f"/><g fill="#59474e"><path d="m217.679688 512c-4.792969 0-8.675782-3.886719-8.675782-8.679688v-433.898437c0-4.789063 3.882813-8.675781 8.675782-8.675781 4.792968 0 8.679687 3.886718 8.679687 8.675781v433.898437c0 4.792969-3.886719 8.679688-8.679687 8.679688zm0 0"/><path d="m217.679688 242.984375c-47.648438 0-92.265626-70.5-94.136719-73.503906-2.542969-4.074219-1.296875-9.433594 2.777343-11.976563 4.070313-2.539062 9.433594-1.296875 11.972657 2.777344 11.34375 18.171875 47.800781 65.347656 79.386719 65.347656 31.589843 0 68.042968-47.175781 79.421874-65.347656 2.539063-4.074219 7.902344-5.316406 11.976563-2.777344 4.070313 2.542969 5.316406 7.902344 2.773437 11.976563-1.90625 3.003906-46.519531 73.503906-94.171874 73.503906zm0 0"/><path d="m217.679688 333.234375c-46.445313.265625-90.480469-20.65625-119.609376-56.832031-7.671874-9.160156-13.96875-19.390625-18.683593-30.375-1.09375-2.898438-.554688-6.164063 1.410156-8.5625 1.964844-2.402344 5.0625-3.566406 8.121094-3.066406 3.0625.503906 5.621093 2.601562 6.714843 5.503906 4.101563 9.25 9.476563 17.882812 15.96875 25.644531 26.007813 31.855469 64.957032 50.339844 106.082032 50.339844 41.128906 0 80.074218-18.484375 106.085937-50.339844 6.492188-7.761719 11.867188-16.394531 15.964844-25.644531 1.097656-2.902344 3.65625-5 6.714844-5.503906 3.0625-.5 6.15625.664062 8.125 3.066406 1.964843 2.398437 2.5 5.664062 1.40625 8.5625-4.714844 10.984375-11.007813 21.214844-18.683594 30.375-29.132813 36.179687-73.167969 57.101562-119.617187 56.832031zm0 0"/></g></svg>