<?xml version="1.0" encoding="iso-8859-1"?>
<!-- Generator: Adobe Illustrator 18.0.0, SVG Export Plug-In . SVG Version: 6.00 Build 0)  -->
<!DOCTYPE svg PUBLIC "-//W3C//DTD SVG 1.1//EN" "http://www.w3.org/Graphics/SVG/1.1/DTD/svg11.dtd" [
	<!ENTITY ns_flows "http://ns.adobe.com/Flows/1.0/">
	<!ENTITY ns_extend "http://ns.adobe.com/Extensibility/1.0/">
	<!ENTITY ns_ai "http://ns.adobe.com/AdobeIllustrator/10.0/">
	<!ENTITY ns_graphs "http://ns.adobe.com/Graphs/1.0/">
]>
<svg version="1.1" xmlns:x="&ns_extend;" xmlns:i="&ns_ai;" xmlns:graph="&ns_graphs;"
	 xmlns="http://www.w3.org/2000/svg" xmlns:xlink="http://www.w3.org/1999/xlink" xmlns:a="http://ns.adobe.com/AdobeSVGViewerExtensions/3.0/"
	 x="0px" y="0px" viewBox="0 0 715.46 715.46" style="enable-background:new 0 0 715.46 715.46;" xml:space="preserve">
<g id="Layer_1">
</g>
<g id="Isolation_Mode">
	<g>
		<g>
			<g>
				<path d="M104.006,201.039c1.77-0.72,4.723-0.631,8.693,0.254c3.381,0.95,5.8,3.272,7.283,6.927
					c0.126,0.311,0.189,0.466,0.315,0.776c1.088,2.68,1.038,5.128-0.126,7.347c-0.012-0.03-0.037-0.038-0.07-0.025
					c0.026-1.005-0.072-1.782-0.297-2.329c-0.097-0.237-0.146-0.356-0.243-0.593c-0.021,0.008-0.031,0.013-0.051,0.021
					c0.056,1.114-0.205,2.038-0.78,2.774c-0.357,0.396-0.586,0.615-0.688,0.658c-0.06-0.046-0.095-0.085-0.108-0.115
					c-1.952-4.706-4.637-8.079-8.094-10.082c-0.07,0.03-0.165-0.002-0.285-0.094c-0.767,1.286-1.174,2.442-1.228,3.465
					c-0.712,3.411-0.754,7.51-0.128,12.29c1.297,8.18,3.283,15.173,5.851,21.008c0.333,0.758,0.5,1.137,0.834,1.895
					c3.097,7.039,6.983,12.092,11.578,15.228c0.723-0.419,1.474-1.386,2.262-2.9c1.365-3.438,1.617-7.939,0.757-13.524
					c-0.447-3.017-1.126-5.651-2.054-7.9c-0.087-0.212-0.359-0.776-0.814-1.691c0.033-0.014,0.044-0.035,0.031-0.066
					c1.739,0.172,3.628,1.478,5.654,3.919c0.02-0.008,0.03-0.012,0.049-0.02c-0.057-0.254-0.085-0.381-0.142-0.634
					c-0.432-1.066-1.314-2.056-2.65-2.967c0.032-0.034,0.048-0.052,0.081-0.086c0.961-0.107,1.788,0.125,2.48,0.696
					c1.105,0.83,2.059,2.253,2.868,4.265c1.729,4.3,2.523,9.609,2.486,15.908c-0.188,2.279-0.689,4.315-1.502,6.112
					c-0.432,0.927-1.31,1.667-2.635,2.227c-2.02,0.852-5.118,1.26-9.324,1.277c-2.771-0.398-5.965-2.539-9.47-6.415
					c-3.651-4.037-6.738-8.836-9.217-14.279c-0.213-0.467-0.319-0.7-0.531-1.166c-4.193-9.193-6.364-19.232-6.411-29.334
					C98.726,206.771,100.675,202.393,104.006,201.039z"/>
				<path d="M127.655,199.234c0.042-0.016,0.063-0.024,0.105-0.041c6.621-2.568,12.573-3.228,17.746-2.047
					c2.16,0.727,3.684,1.531,4.579,2.399c2.128,1.689,3.589,3.703,4.402,6.031c0.15,0.428,0.224,0.642,0.374,1.07
					c1.377,3.94,1.19,8.507-0.457,13.705c-0.821,2.179-1.797,3.999-2.932,5.465c-1.381,1.73-2.753,2.941-4.128,3.632
					c3.697,1.141,7.208,2.393,10.535,3.745c0.011,0.031,0.869,0.438,2.565,1.228c3.017,1.577,4.895,3.064,5.667,4.43
					c0.566,0.778,1.026,1.679,1.383,2.703c0.465,1.648,0.6,2.558,0.406,2.73c-0.065-0.082-1.119-0.55-3.174-1.392
					c1.483,0.96,2.221,1.442,3.694,2.411c0.417,1.63,0.625,2.445,1.044,4.074c-0.019,0.007-0.029,0.01-0.048,0.017
					c-3.91-3.019-7.979-5.807-12.207-8.355c-3.061-1.785-7.109-3.81-12.194-6.018c1.062,2.779,3.794,9.826,8.21,21.192
					c-0.032,0.012-0.042,0.033-0.03,0.064c-1.383,0.493-2.096,0.682-2.143,0.56c-0.252-1.03-0.614-2.158-1.087-3.385
					c-0.024-0.061-0.146-0.331-0.367-0.809c-0.019,0.007-0.029,0.011-0.048,0.019c0.414,1.074,0.632,2.451,0.661,4.132
					c-3.201,0.818-4.835,1.208-4.903,1.129c-2.597-9.333-6.002-18.404-9.477-27.372c-4.047-10.445-7.604-18.181-10.425-23.072
					c-0.208,0.082-0.756,0.618-1.642,1.609c-0.041,0.017-0.062,0.025-0.104,0.042c-1.578-0.579-2.369-0.866-3.955-1.435
					c0.578-0.961,0.912-1.433,0.982-1.461c-0.039-0.037-0.049-0.033-0.07-0.025c-1.109,1.051-1.694,1.592-1.764,1.62
					c-0.021,0.008-0.031,0.013-0.052,0.021c-0.945-0.538-1.48-0.904-1.602-1.103C118.808,203.85,122.296,201.314,127.655,199.234z
					 M131.308,204.323c1.427,0.806,2.439,1.634,3.057,2.523c1.361,3.773,3.909,10.644,7.646,20.616c0.04-0.015,0.06-0.023,0.1-0.038
					c3.237-2.468,5.295-5.823,6.194-10.107c0.478-2.905,0.338-5.44-0.445-7.603c-1.287-3.553-3.786-5.818-7.53-6.744
					c-2.636-0.391-5.32-0.067-8.031,0.973C131.902,204.094,131.704,204.17,131.308,204.323z"/>
				<path d="M166.433,185.1c0.997-0.319,2.771-0.368,5.309-0.126c2.07-0.129,3.381,0.021,3.936,0.435
					c2.146,1.166,5.476,7.353,9.927,18.577c1.4,3.801,2.258,6.238,2.577,7.308c0.104,0.347,0.393,0.449,0.872,0.306
					c2.04,0.113,3.821,0.382,5.344,0.796c0.104,0.052,0.156,0.078,0.259,0.13c-0.679,0.104-1.025,0.132-1.717,0.19
					c-0.02,0.006-0.031,0.009-0.051,0.015c0.252-0.022,0.901,0.302,1.957,1.023c0.011,0.038,0.016,0.057,0.027,0.095
					c-0.041,0.012-0.061,0.018-0.102,0.029c-1.211-0.368-2.415-0.376-3.605-0.025c-0.081,0.024-0.122,0.036-0.204,0.06
					c1.071-0.128,2.014-0.061,2.84,0.246c0.115,0.09,0.172,0.135,0.287,0.225c-0.02,0.006-0.031,0.009-0.051,0.015
					c-1.278,0.166-2.783,0.505-4.514,1.021c0.304,1.02,0.457,1.531,0.761,2.551c3.393,11.37,4.474,18.675,3.288,21.921
					c-0.033,0.01-0.113,0.155-0.241,0.434c-0.039,0.012-0.059,0.018-0.098,0.03c0.027-1.194,0.026-1.845-0.021-2.003
					c-0.203,1.093-0.443,1.767-0.72,2.024c-0.451,0.62-1.076,1.138-1.872,1.556c-0.018-0.057-0.026-0.085-0.044-0.141
					c0.202-0.613,0.276-1.066,0.221-1.359c-0.451,0.965-0.854,1.503-1.211,1.614c-0.01-0.031-0.032-0.042-0.063-0.032
					c-0.522-5.104-1.788-10.972-3.836-17.598c-0.766-2.48-1.592-4.736-2.48-6.767c-1.963,0.608-5.73,2.223-11.241,4.944
					c0.01,0.032-0.08,0.096-0.271,0.194c1.076,5.841,2.576,11.594,4.467,17.269c0.455,1.366,0.683,2.048,1.138,3.414
					c-0.831,0-1.608-0.276-2.337-0.829c-0.428-0.41-0.684-0.74-0.769-0.989c-0.039,0.013-0.059,0.02-0.098,0.033
					c0.057,0.168,0.085,0.252,0.142,0.421c0.116,0.343,0.425,0.828,0.926,1.457c-0.019,0.007-0.029,0.01-0.049,0.016
					c-3.287-1.493-6.156-5.59-8.397-12.243c-3.298-9.792-3.865-19.656-4.371-29.96c0.181-6.16,0.897-10.721,2.099-13.668
					c0.431-1.452,1.078-2.317,1.933-2.591C166.401,185.11,166.412,185.107,166.433,185.1z M170.782,216.445
					c1.967-0.993,4.179-1.883,6.63-2.661c0.613-0.194,1.985-0.595,4.119-1.188c-1.62-5.227-4.135-11.243-7.622-18.073
					c-0.822-1.396-1.594-2.497-2.313-3.304c-0.021,0.007-0.032,0.01-0.053,0.017c-0.791,1.8-1.325,3.954-1.601,6.458
					c-0.231,2.284-0.312,5.125-0.237,8.522C169.787,208.574,170.141,211.985,170.782,216.445z"/>
				<path d="M181.059,182.553c5.174-1.155,14.117-3.279,26.882-5.897c0.008,0.032,0.707-0.078,2.098-0.324
					c-0.548,0.561-1.827,1.252-3.816,2.135c-0.043,0.011-0.064,0.016-0.107,0.027c0.141,0.015,0.206-0.002,0.335-0.035
					c1.624-0.517,2.582-0.808,2.87-0.88c0.088,0.046,0.517,0.768,1.286,2.168c0.506,0.653,0.804,1.019,0.9,1.096
					c-0.033,0.049-0.05,0.073-0.083,0.122c-7.361,1.36-13.173,2.695-17.44,3.879c-0.299,0.083-0.448,0.124-0.747,0.208
					c-0.098,0.061-0.138,0.124-0.12,0.187c0.67,3.088,1.512,6.436,2.52,10.045c0.642,2.298,0.963,3.447,1.605,5.745
					c4.598-1.285,6.901-1.906,11.516-3.106c-0.477,2.451-0.749,3.661-0.818,3.679c-1.516,0.398-2.273,0.6-3.787,1.008
					c0.185,0.001,1.516-0.087,4-0.197c0.01,0.038,0.015,0.057,0.025,0.095c-0.558,0.69-0.87,1.045-0.938,1.063
					c-1.449,0.384-4.334,1.131-8.644,2.301c3.09,10.842,6.914,21.476,10.851,32.034c-0.033,0.009-0.045,0.029-0.036,0.061
					c-0.255-0.032-0.807-0.186-1.658-0.46c0.011,0.038,0.016,0.057,0.027,0.095c0.667,0.496,1.021,0.824,1.065,0.983
					c0.016,0.057,0.024,0.086,0.04,0.143c-0.045,0.217-0.166,0.353-0.361,0.407c-0.02,0.005-0.029,0.008-0.049,0.014
					c-1.091-0.515-3.114-0.89-6.074-1.097c-0.461-0.003-0.833-0.494-1.116-1.473c-3.997-13.109-7.859-26.353-12.264-39.253
					c-1.353-3.964-2.65-7.409-3.8-10.292c-0.789,0.197-1.378,0.352-1.769,0.468c-0.064,0.019-0.096,0.028-0.16,0.047
					c-0.141,0.042-0.511-0.363-1.111-1.214c0.037-0.032,0.056-0.047,0.093-0.079c0.666-0.231,1.07-0.367,1.212-0.409
					c-1.541,0.402-2.343,0.506-2.418,0.253c-0.229-0.302-0.344-0.453-0.573-0.755c0.058-0.038,0.088-0.057,0.146-0.095
					c1.259-0.376,1.889-0.562,3.15-0.931c-1.136,0.213-1.726,0.251-1.781,0.062c-0.437-0.693-0.656-1.04-1.095-1.733
					C180.971,182.61,181,182.591,181.059,182.553z"/>
				<path d="M223.223,171.665c0.521-0.119,0.782-0.178,1.303-0.296c5.247-1.185,9.043-1.359,11.354-0.6
					c0.008,0.038,0.012,0.058,0.02,0.096c-1.456-0.099-2.456-0.088-3,0.028c-0.022,0.005-0.033,0.007-0.054,0.012
					c1.015-0.031,2.199,0.289,3.557,1.014c-0.48,0.05-1.476,0.156-2.977,0.375c-0.043,0.009-0.065,0.014-0.108,0.023
					c0.696-0.098,1.566,0.088,2.617,0.607c0.349,0.229,0.598,0.429,0.746,0.599c-0.311,0.133-1.813,0.48-4.325,1.168
					c-2.133,0.584-4.478,1.412-6.946,2.342c2.422,17.753,6.941,35.327,10.764,52.811c-0.067,0.015-0.095,0.039-0.088,0.071
					c-0.418-0.006-1.347-0.501-2.795-1.48c-0.34-0.258-0.521-0.436-0.543-0.532c-0.02,0.005-0.03,0.007-0.05,0.012
					c0.009,0.038,0.013,0.058,0.022,0.096c0.097,0.417,0.672,1.007,1.72,1.776c-0.029,0.057-0.048,0.062-0.088,0.071
					c-0.562,0.13-1.36-0.241-2.402-1.11c-0.433-0.506-0.729-0.943-0.886-1.311c-0.02,0.005-0.03,0.007-0.05,0.012
					c0.009,0.038,0.014,0.058,0.023,0.096c0.323,0.835,0.485,1.253,0.807,2.089c-0.04,0.009-0.059,0.014-0.099,0.023
					c-4.745-9.121-6.758-19.519-9.177-29.388c-0.91-3.714-2.278-9.897-4.137-18.475c-0.153-0.639,0.107-1.597,0.789-2.873
					c-2.374,0.833-4.53,1.694-6.47,2.58c-3.129-1.629-4.998-2.355-5.571-2.209c0.452-0.471,2.089-1.163,4.906-2.095
					c-0.12-0.021-0.556,0.052-1.262,0.211c-1.376,0.31-2.995,0.835-4.782,1.463c-0.031-0.033-0.047-0.049-0.078-0.082
					c0.73-1.476,5.201-3.605,13.487-6.151C220.444,172.337,221.703,172.011,223.223,171.665z"/>
				<path d="M237.351,170.766c0.175,0.3,0.789,1.717,1.834,4.253c0.022-0.004,0.032-0.007,0.054-0.011
					c-0.417-1.595-0.62-2.369-1.028-3.916c0.061-0.033,0.092-0.049,0.153-0.082c0.043-0.009,0.065-0.013,0.108-0.022
					c0.724-0.148,1.982-0.355,3.775-0.611c0.072-0.014,0.555-0.144,1.447-0.387c0.29-0.057,0.934,2.351,1.857,7.171
					c2.533,13.242,4.763,26.664,7.104,40.003c0.182,1.103,0.335,2.065,0.503,2.815c0.14,0.626,0.333,1.425,0.517,2.36
					c-0.087,0.085-1.63,1.169-4.586,3.287c-0.006-0.032-0.027-0.045-0.06-0.038c-0.106-0.515-0.246-1.107-0.418-1.776
					c-2.021-10.154-3.319-16.735-3.943-19.674c-2.155-10.145-4.487-20.325-7.639-30.286c-0.305-0.742-0.511-1.37-0.618-1.885
					C236.787,171.487,236.975,171.247,237.351,170.766z"/>
				<path d="M269.391,159.563c3.004-0.034,4.517,0.045,4.541,0.207c0.544,1.235,0.815,1.852,1.356,3.088
					c0.022-0.003,0.033-0.005,0.055-0.008c-0.239-2.124-0.321-3.191-0.247-3.202c0.55-0.081,0.852,0.058,0.904,0.415
					c1.311,4.36,2.553,10.672,3.746,18.934c0.011,0.078,0.017,0.117,0.028,0.195c1.631,12.612,3.177,25.194,2.904,37.939
					c-0.204,3.021-0.816,4.608-1.85,4.766c-0.06,0.009-0.09,0.014-0.15,0.023c-0.134,0.02-0.847-0.071-2.142-0.268
					c-0.62-0.035-1.315,0.007-2.082,0.129c-1.139-0.916-3.438-5.273-7.017-13.038c-1.943-4.273-4.993-11.39-9.289-21.312
					c-1.348-2.898-2.704-5.678-4.069-8.338c-0.021,0.004-0.032,0.006-0.054,0.01c-0.295,1.022,0.392,6.843,2.076,17.46
					c1.55,8.858,2.325,13.286,3.879,22.143c-0.02,0.004-0.03,0.006-0.05,0.009c-0.756-0.53-1.251-1.425-1.483-2.685
					c-0.02,0.004-0.03,0.006-0.051,0.009c0.032,0.174,0.048,0.262,0.08,0.436c0.137,0.744,0.592,1.796,1.361,3.159
					c-0.02,0.004-0.03,0.006-0.05,0.009c-0.863-0.176-1.784-0.941-2.768-2.296c-0.719-1.236-1.119-2.063-1.198-2.484
					c-0.02,0.004-0.03,0.006-0.051,0.01c0.002,0.12,0.002,0.18,0.004,0.3c0.116,0.614,0.337,1.325,0.663,2.133
					c-0.69-0.338-1.515-1.938-2.481-4.799c-1.452-4.674-2.84-10.415-4.145-17.226c-1.931-10.071-3.024-18.244-3.24-24.526
					c0.015-1.107,0.259-1.705,0.73-1.793c-0.024-0.129,1.471-0.565,4.493-1.279c-0.006-0.032,0.47-0.202,1.428-0.507
					c0.926,0.57,2.579,3.097,4.913,7.596c2.722,5.332,4.065,8.005,6.713,13.362c1.748,3.775,3.789,8.335,6.097,13.69
					c1.022,2.013,1.531,3.02,2.542,5.037c0.021-0.003,0.031-0.005,0.051-0.008c-0.309-10.366-1.6-20.638-3.089-30.802
					C271.718,171.052,270.656,165.52,269.391,159.563z"/>
				<path d="M294.203,157.757c0.022-0.003,0.033-0.004,0.055-0.007c1.398-0.166,4.008,0.256,7.797,1.304
					c1.076,0.348,2.222,1.004,3.431,1.97c1.495,1.598,2.305,3.104,2.445,4.51c0.26,2.617-0.784,5.408-3.084,8.393
					c-0.294,0.308-0.441,0.463-0.735,0.772c-0.022,0.002-0.032,0.003-0.054,0.006c0.261-0.952,0.36-1.74,0.294-2.361
					c-0.054-0.094-0.08-0.14-0.134-0.234c-0.022,0.002-0.032,0.003-0.054,0.006c-0.039,0.666-0.437,1.368-1.192,2.111
					c-0.445,0.247-0.704,0.374-0.775,0.382c-0.32-1.532-0.481-2.298-0.803-3.83c-1.081-3.518-2.374-5.855-3.873-7.007
					c-0.833,0.79-1.571,1.903-2.211,3.335c-1.226,2.694-2.073,5.646-2.548,8.85c-1.152,7.429-1.253,14.436-0.406,21.02
					c0.969,7.53,3.065,13.089,6.215,16.71c1.157-0.34,2.303-1.353,3.447-3.042c1.144-1.985,2.008-4.281,2.587-6.892
					c0.66-3.446,0.946-5.69,0.833-6.737c-0.021,0.002-0.031,0.003-0.052,0.006c-1.071,0.149-1.952,0.264-2.645,0.342
					c-2.245,0.252-3.367,0.384-5.61,0.656c-0.005-0.039-0.007-0.059-0.012-0.098c1.791-0.873,2.689-1.306,4.491-2.166
					c-0.068-0.042-0.099-0.038-0.162-0.031c-2.854,0.889-4.361,1.357-4.534,1.378c-0.004-0.032-0.023-0.047-0.057-0.043
					c-0.056-2.476-0.055-3.784,0-3.923c5.46-1.554,8.202-2.302,13.711-3.739c0.089,0.189,0.534,2.342,1.323,6.458
					c-0.067,0.039-0.117,0.061-0.151,0.064c-0.657,0.097-1.054,0.154-1.192,0.168c0.118,0.483,0.205,1.004,0.26,1.559
					c0.035,0.353,0.053,0.53,0.088,0.883c0.369,3.696-0.218,8.161-1.687,13.404c-0.5,1.44-1.311,2.963-2.427,4.573
					c-0.643,0.963-1.632,1.519-2.973,1.672c-0.201,0.023-0.301,0.035-0.502,0.058c-1.743,0.201-4.386-0.216-7.962-1.216
					c-1.809-0.795-3.579-2.683-5.328-5.663c-2.659-4.847-4.482-10.53-5.4-17.072c-1.26-8.983-0.76-17.971,1.71-26.949
					C288.342,161.338,291.002,158.136,294.203,157.757z"/>
				<path d="M330.455,158.193c0.132,0.321,0.542,1.81,1.226,4.466c0.022-0.001,0.033-0.002,0.055-0.003
					c-0.192-1.638-0.287-2.432-0.477-4.02c0.065-0.024,0.097-0.036,0.162-0.06c0.044-0.003,0.066-0.004,0.11-0.007
					c0.734-0.047,2.004-0.077,3.81-0.083c0.073-0.004,0.567-0.065,1.482-0.183c0.294-0.016,0.599,2.457,0.847,7.359
					c0.681,13.465,1.038,27.067,1.515,40.6c0.028,1.118,0.047,2.091,0.109,2.858c0.052,0.64,0.133,1.458,0.186,2.409
					c-0.098,0.072-1.769,0.932-4.977,2.621c-0.002-0.032-0.021-0.048-0.054-0.046c-0.034-0.524-0.091-1.13-0.168-1.817
					c-0.6-10.335-0.976-17.032-1.189-20.03c-0.733-10.346-1.636-20.75-3.378-31.051c-0.199-0.777-0.316-1.428-0.351-1.953
					C329.8,158.829,330.018,158.617,330.455,158.193z"/>
				<path d="M363.636,151.523c2.974,0.38,4.458,0.667,4.46,0.831c0.368,1.298,0.551,1.947,0.915,3.246c0.022,0,0.033,0,0.055,0
					c0.056-2.136,0.122-3.205,0.197-3.206c0.555-0.004,0.834,0.175,0.837,0.536c0.696,4.499,1.055,10.922,1.097,19.269
					c0,0.079,0.001,0.118,0.001,0.197c-0.124,12.716-0.328,25.391-2.352,37.977c-0.618,2.964-1.441,4.451-2.484,4.465
					c-0.06,0.001-0.091,0.001-0.151,0.002c-0.135,0.002-0.828-0.187-2.08-0.561c-0.608-0.121-1.301-0.175-2.076-0.159
					c-1-1.065-2.671-5.697-5.139-13.882c-1.332-4.5-3.366-11.97-6.244-22.39c-0.933-3.057-1.89-5.997-2.872-8.82
					c-0.022,0.001-0.033,0.001-0.054,0.002c-0.432,0.972-0.554,6.831-0.351,17.579c0.312,8.987,0.47,13.48,0.786,22.467
					c-0.02,0.001-0.031,0.001-0.051,0.002c-0.673-0.629-1.039-1.584-1.095-2.864c-0.02,0.001-0.031,0.001-0.051,0.002
					c0.008,0.177,0.012,0.266,0.019,0.443c0.033,0.756,0.338,1.86,0.91,3.316c-0.02,0.001-0.031,0.001-0.051,0.002
					c-0.828-0.293-1.632-1.179-2.417-2.656c-0.54-1.324-0.822-2.198-0.842-2.626c-0.021,0.001-0.031,0.001-0.051,0.002
					c-0.015,0.119-0.022,0.179-0.037,0.298c0.03,0.624,0.15,1.359,0.361,2.204c-0.635-0.431-1.229-2.129-1.79-5.096
					c-0.791-4.83-1.372-10.708-1.725-17.633c-0.522-10.241-0.478-18.487,0.172-24.738c0.167-1.094,0.49-1.653,0.968-1.675
					c-0.006-0.131,1.53-0.357,4.612-0.647c-0.001-0.032,0.492-0.135,1.48-0.305c0.837,0.692,2.121,3.423,3.807,8.201
					c1.955,5.657,2.914,8.489,4.794,14.16c1.208,3.98,2.597,8.779,4.14,14.4c0.733,2.135,1.097,3.203,1.819,5.34
					c0.021,0,0.031-0.001,0.052-0.001c1.121-10.309,1.259-20.661,1.186-30.934C364.355,163.223,364.066,157.598,363.636,151.523z"/>
				<path d="M396.507,152.233c5.93,0.191,11.684,1.851,17.155,4.965c3.21,1.962,5.317,4.625,6.334,7.955
					c0.486,1.45,0.676,2.912,0.574,4.388c-0.02,0.295-0.031,0.442-0.051,0.737c-0.272,3.934-2.208,7.797-5.72,11.631
					c-2.002,1.852-3.483,3.037-4.466,3.542c-2.671,1.598-5.625,2.322-8.894,2.186c-0.612-0.025-0.917-0.038-1.529-0.062
					c-0.498,9.125-0.948,18.086-1.356,26.884c-0.041,0.018-0.062,0.027-0.103,0.045c-1.351-0.873-2.312-1.877-2.884-3.014
					c-0.02-0.001-0.03-0.001-0.05-0.002c-0.002,0.059-0.003,0.088-0.005,0.147c-0.017,0.493,0.415,1.264,1.289,2.314
					c-0.102,0.029-0.171,0.043-0.204,0.042c-0.999-0.397-1.753-1.096-2.262-2.099c-0.157-0.4-0.312-0.864-0.465-1.396
					c-0.021-0.001-0.031-0.001-0.051-0.002c-0.001,0.039-0.002,0.059-0.003,0.099c-0.004,0.132,0.107,0.94,0.331,2.427
					c-0.041,0.018-0.062,0.028-0.103,0.046c-0.552-0.708-0.945-2.84-1.182-6.398c-0.381-5.666-0.481-12.113-0.28-19.341
					c0.011-0.394-0.089-0.595-0.3-0.6c-0.775-0.021-2.028-1.106-3.786-3.248c-0.378-0.534-0.565-0.932-0.56-1.195
					c0.021,0,0.032,0.001,0.054,0.001c2.392,0.937,3.931,1.424,4.639,1.444c0.065-2.326,0.097-3.489,0.161-5.815
					c0.158-5.683,0.406-12.088,0.754-19.213c-0.022-0.001-0.033-0.001-0.055-0.002c-0.854,0.272-1.669,0.58-2.448,0.922
					c-1.182-1.173-1.775-1.758-2.967-2.926c0.859-0.607,1.345-0.909,1.456-0.906c-0.043-0.05-0.065-0.051-0.11-0.052
					c-1.376,0.562-2.136,0.844-2.283,0.842c-0.949-0.478-1.515-0.799-1.697-0.967C387.875,153.223,391.578,152.075,396.507,152.233z
					 M399.792,158.168c1.26,1.757,1.869,2.951,1.844,3.574c-0.478,5.507-0.968,12.822-1.468,21.946
					c3.94-1.128,7.004-3.145,9.201-6.09c1.966-2.661,3.048-5.412,3.211-8.266c0.232-4.069-1.411-7.199-4.98-9.348
					c-1.895-1.08-4.428-1.689-7.588-1.808C399.924,158.173,399.88,158.172,399.792,158.168z"/>
				<path d="M429.822,155.009c6.54,0.531,11.926,2.381,16.087,5.464c1.489,1.347,2.67,2.734,3.544,4.154
					c1.662,2.963,2.304,5.919,1.963,8.857c-0.045,0.392-0.068,0.588-0.114,0.979c-0.497,4.277-2.765,8.291-6.708,12.097
					c-2.387,1.957-4.242,3.14-5.591,3.533c-2.316,0.859-4.289,1.218-5.934,1.069c4.177,4.901,7.041,8.159,8.723,9.725
					c7.802,7.966,13.679,12.32,18.075,12.923c2.197,0.302,3.617-0.223,4.263-1.591c0.096-0.186,0.17-0.457,0.221-0.815
					c0.337-2.342-1.184-5.958-4.734-9.966c-3.792-4.28-8.168-6.665-12.104-7.113c-0.418-0.048-0.627-0.071-1.046-0.118
					c0.82-0.702,1.84-1.281,3.062-1.734c2.125-0.612,4.349-0.774,6.659-0.481c4.337,0.55,8.548,2.42,11.905,5.608
					c3.33,3.163,4.686,6.841,4.14,10.348c-0.475,3.053-2.439,6.101-5.82,9.187c-2.948,2.486-6.402,3.449-10.418,2.918
					c-5.355-0.709-10.064-3.333-14.263-7.918c-3.677-4.033-6.489-7.338-8.362-9.956c-1.33-1.74-2.648-3.541-3.955-5.402
					c-0.657,8.454-0.184,19.249-1.727,21.277c-0.021,0.028-0.123,0.039-0.156,0.036c-1.271-0.142-1.925-0.212-1.958-0.214
					c0.003-0.033-0.03-0.052-0.097-0.057c0.23-0.74,0.389-1.633,0.476-2.681c0.064-0.766,0.095-1.149,0.159-1.916
					c-0.02-0.002-0.031-0.003-0.051-0.004c-0.079,0.95-0.48,2.302-1.197,4.056c-0.02-0.002-0.03-0.002-0.05-0.004
					c-3.227-0.625-4.842-0.968-4.835-1.066c1.317-7.351,2.381-16.137,3.151-26.362c0.166-2.202,0.249-3.303,0.414-5.505
					c0.688-9.144,0.902-16.742,0.612-22.794c-0.044-0.003-0.066-0.005-0.11-0.008c-0.036-0.003-0.773,0.256-2.205,0.781
					c-1.125-1.245-1.689-1.867-2.825-3.107c0.697-0.498,1.215-0.792,1.557-0.934c-0.018-0.051-0.029-0.051-0.051-0.053
					c-0.975,0.329-1.462,0.495-2.435,0.827c-0.032-0.068-0.328-0.614-0.893-1.638c0.003-0.039,0.004-0.059,0.006-0.098
					c1.126-0.851,2.444-1.457,3.952-1.815C423.603,154.908,426.497,154.739,429.822,155.009z M430.645,161.211
					c1.14,1.794,1.678,2.995,1.622,3.65c-0.654,6.74-1.17,12.336-1.553,16.789c-0.13,1.513-0.195,2.269-0.325,3.782
					c0.176,0.015,0.345,0.065,0.472,0.09c3.951,0.792,8.097-1.959,10.823-7.099c0.744-1.641,1.195-3.18,1.344-4.619
					c0.024-0.235,0.037-0.353,0.061-0.589c0.318-3.072-0.545-5.897-2.634-8.144c-2.035-2.188-5.142-3.466-8.986-3.791
					C431.139,161.252,430.975,161.238,430.645,161.211z M469.963,160.713c1.357,0.192,3.578,1.189,6.629,3.015
					c0.682,0.436,1.33,1.583,1.935,3.44c0.933,3.571,1.075,7.305,0.456,11.2c-0.918,5.778-3.067,10.108-6.38,13.027
					c-1.955,1.298-3.612,2.017-4.985,2.15c-0.947,0.129-1.994,0.111-3.147-0.05c-2.759-0.386-5.38-1.366-7.887-2.944
					c-1.647-1.07-2.739-3.223-3.406-6.284c-0.609-2.792-0.839-5.644-0.506-8.452c0.058-0.49,0.087-0.734,0.145-1.224
					c0.584-4.927,2.415-8.488,5.54-10.649c1.593-0.894,3.238-1.231,4.92-1.009c0.351,0.046,0.527,0.07,0.878,0.116
					c-0.765,0.711-1.44,2.031-2.032,4.008c-0.826,2.345-1.439,5.099-1.849,8.26c-0.066,0.508-0.099,0.763-0.165,1.271
					c-0.758,5.835-0.421,9.92,0.983,12.263c0.37,0.448,0.799,0.704,1.292,0.771c0.316,0.043,0.474,0.065,0.79,0.108
					c2.704,0.371,5.008-2,6.956-7.129c1.133-2.79,1.927-5.663,2.365-8.621c0.104-0.702,0.156-1.053,0.26-1.756
					c0.544-3.673,0.38-6.323-0.501-7.946c-0.041-0.026-0.061-0.039-0.102-0.065c-0.022-0.003-0.033-0.005-0.055-0.008
					c-1.383,0.795-2.36,1.653-2.935,2.567c-1.468,2.249-2.434,5.102-2.913,8.552c-0.054,0.391-0.081,0.586-0.136,0.976
					c-0.14,1.009-0.233,1.943-0.28,2.798c-0.046,0.014-0.068,0.02-0.114,0.034c-1.721-0.969-2.483-2.213-2.277-3.745
					c-0.022-0.003-0.033-0.004-0.054-0.007c-0.093,0.419-0.15,0.71-0.172,0.872c-0.024,0.176-0.036,0.264-0.059,0.44
					c-0.026,0.195-0.046,0.475-0.059,0.838c-0.043-0.006-0.064-0.009-0.107-0.014c-0.675-1.749-0.88-3.665-0.604-5.751
					c0.062-0.469,0.093-0.704,0.155-1.173c0.492-3.714,1.883-6.698,4.205-8.935C467.824,160.879,468.897,160.562,469.963,160.713z"
					/>
				<path d="M498.811,164.423c0.022,0.004,0.033,0.006,0.055,0.01c1.389,0.257,3.766,1.435,7.089,3.563
					c0.93,0.652,1.835,1.62,2.707,2.902c0.961,1.971,1.291,3.65,1.008,5.034c-0.528,2.576-2.361,4.931-5.454,7.097
					c-0.374,0.207-0.561,0.311-0.934,0.518c-0.022-0.004-0.032-0.006-0.054-0.011c0.533-0.832,0.862-1.554,0.984-2.167
					c-0.024-0.105-0.035-0.158-0.059-0.263c-0.021-0.004-0.032-0.006-0.053-0.01c-0.235,0.624-0.827,1.177-1.771,1.661
					c-0.501,0.103-0.786,0.148-0.857,0.134c0.148-1.558,0.222-2.337,0.368-3.896c0.008-3.681-0.539-6.297-1.633-7.842
					c-1.034,0.507-2.072,1.35-3.111,2.527c-1.975,2.209-3.664,4.775-5.071,7.694c-3.31,6.752-5.487,13.414-6.63,19.953
					c-1.308,7.479-0.951,13.409,0.993,17.803c1.21,0.019,2.609-0.608,4.208-1.88c1.687-1.556,3.197-3.491,4.529-5.812
					c1.656-3.094,2.597-5.153,2.8-6.185c-0.02-0.004-0.031-0.006-0.051-0.01c-1.072-0.176-1.952-0.329-2.639-0.461
					c-2.228-0.426-3.342-0.635-5.573-1.041c0.007-0.039,0.011-0.058,0.018-0.097c1.976-0.301,2.965-0.448,4.948-0.734
					c-0.053-0.06-0.084-0.066-0.146-0.078c-3.001,0-4.584,0-4.756-0.032c0.006-0.032-0.009-0.052-0.042-0.058
					c0.682-2.381,1.071-3.629,1.165-3.746c5.695,0.139,8.548,0.24,14.263,0.508c0.029,0.207-0.183,2.395-0.65,6.561
					c-0.076,0.018-0.13,0.023-0.164,0.017c-0.66-0.103-1.058-0.167-1.195-0.195c-0.03,0.497-0.101,1.019-0.213,1.566
					c-0.071,0.348-0.107,0.522-0.178,0.87c-0.744,3.639-2.635,7.728-5.603,12.297c-0.906,1.226-2.137,2.44-3.686,3.645
					c-0.903,0.729-2.017,0.965-3.348,0.713c-0.2-0.038-0.3-0.057-0.499-0.094c-1.73-0.326-4.14-1.51-7.269-3.527
					c-1.498-1.297-2.632-3.625-3.422-6.99c-1.107-5.418-1.165-11.386-0.101-17.906c1.461-8.953,4.607-17.388,9.638-25.228
					C492.131,166.101,495.63,163.834,498.811,164.423z"/>
				<path d="M520.482,168.801c0.044,0.01,0.066,0.014,0.109,0.024c6.879,1.507,12.17,4.238,15.808,8.077
					c1.39,1.797,2.211,3.309,2.476,4.527c0.835,2.582,0.936,5.068,0.328,7.457c-0.112,0.44-0.168,0.659-0.28,1.099
					c-1.03,4.045-3.705,7.749-7.934,11.174c-1.882,1.363-3.693,2.344-5.441,2.94c-2.097,0.681-3.898,0.935-5.416,0.752
					c2.43,2.99,4.648,5.97,6.661,8.933c-0.008,0.032,0.479,0.844,1.45,2.439c1.633,2.979,2.373,5.256,2.26,6.821
					c0.04,0.961-0.074,1.966-0.342,3.016c-0.523,1.631-0.913,2.464-1.169,2.5c-0.009-0.104-0.625-1.076-1.867-2.912
					c0.701,1.619,1.048,2.428,1.736,4.048c-0.553,1.589-0.829,2.383-1.38,3.973c-0.02-0.005-0.03-0.008-0.05-0.013
					c-1.58-4.674-3.418-9.243-5.516-13.7c-1.552-3.176-3.788-7.098-6.775-11.742c-0.651,2.903-2.27,10.286-4.873,22.198
					c-0.032-0.007-0.053,0.005-0.06,0.037c-1.413-0.351-2.107-0.587-2.079-0.715c0.358-0.998,0.68-2.138,0.964-3.422
					c0.014-0.064,0.061-0.357,0.142-0.877c-0.02-0.004-0.03-0.007-0.05-0.011c-0.248,1.124-0.825,2.392-1.726,3.81
					c-3.093-1.082-4.653-1.657-4.666-1.76c2.986-9.215,5.162-18.656,7.224-28.05c2.401-10.943,3.717-19.353,4.079-24.987
					c-0.216-0.046-0.962,0.099-2.237,0.438c-0.043-0.009-0.065-0.013-0.108-0.022c-0.982-1.352-1.476-2.027-2.47-3.376
					c1.003-0.483,1.539-0.692,1.611-0.677c-0.012-0.053-0.023-0.055-0.045-0.06c-1.489,0.266-2.268,0.394-2.342,0.379
					c-0.022-0.004-0.032-0.007-0.054-0.011c-0.484-0.969-0.723-1.57-0.715-1.803C510.65,167.776,514.914,167.582,520.482,168.801z
					 M520.7,175.058c0.735,1.458,1.116,2.707,1.136,3.789c-0.949,3.897-2.624,11.032-5.02,21.407
					c0.042,0.009,0.062,0.014,0.104,0.023c4.031-0.275,7.583-1.937,10.686-5.014c1.995-2.159,3.276-4.349,3.819-6.585
					c0.891-3.672,0.068-6.939-2.521-9.776c-1.968-1.779-4.365-2.989-7.177-3.616C521.317,175.195,521.111,175.149,520.7,175.058z"/>
				<path d="M551.808,177.257c5.488,2.874,10.177,5.512,14.098,7.865c0.39,0.252,0.576,0.41,0.557,0.472
					c-0.634-0.136-0.944-0.227-1.565-0.409c-0.57-0.167-1.203-0.385-1.899-0.655c-0.043-0.012-0.064-0.019-0.107-0.031
					c1.652,0.974,2.795,1.689,3.424,2.183c-0.186,0.631-0.198,1.192-0.035,1.686c-0.081,0.011-0.14,0.01-0.174,0
					c-0.994-0.294-5.239-1.92-12.812-4.679c-0.278-0.076-0.418-0.114-0.696-0.191c-0.091-0.004-0.136-0.007-0.227-0.011
					c-0.889,2.551-1.762,5.413-2.625,8.584c-0.731,2.683-1.096,4.024-1.827,6.707c0.017,0.073,0.06,0.119,0.131,0.138
					c6.668,2.193,9.969,3.401,9.95,3.464c-1.439,1.328-2.237,2.023-2.402,2.078c-0.851-0.244-1.277-0.366-2.128-0.607
					c-0.207-0.059-0.542-0.136-1-0.231c2.009,1.096,2.996,1.69,2.96,1.816c-0.475,0.171-0.713,0.257-1.187,0.429
					c-3.064-0.875-4.599-1.303-7.671-2.14c-3.61,14.209-5.481,22.233-5.592,24.076c3.51-0.537,6.43-0.462,8.728,0.201
					c1.032,0.298,2.047,0.781,3.043,1.451c-0.011,0.038-0.017,0.057-0.028,0.095c-0.658-0.194-0.987-0.29-1.646-0.482
					c-0.566-0.165-0.938-0.186-1.116-0.067c0.02,0.006,0.03,0.009,0.049,0.014c0.105,0.01,0.158,0.015,0.264,0.025
					c1.496,0.434,2.539,1.495,3.122,3.176c-0.011,0.038-0.017,0.057-0.028,0.095c-3.602,0.371-7.46,1.141-11.548,2.322
					c-0.84,0.21-1.663,0.886-2.471,2.027c-0.01,0.038-0.016,0.057-0.026,0.095c-0.02-0.005-0.03-0.008-0.05-0.014
					c-0.132-0.036-0.466-0.418-1.009-1.146c-0.02-0.005-0.029-0.008-0.049-0.013c0.232,0.83,0.323,1.332,0.263,1.553
					c-0.043,0.158-0.222,0.229-0.533,0.212c-0.984-1.426-2.503-2.98-4.568-4.646c-0.428-0.521-0.609-0.907-0.542-1.162
					c1.382-4.598,2.673-9.191,3.878-13.763c3.275-12.428,6.154-25.011,8.07-37.737c0.116-0.445,1.451-0.951,4.019-1.493
					C550.335,177.558,551.34,177.131,551.808,177.257z"/>
				<path d="M585.328,187.32c0.128,0.042,0.193,0.063,0.321,0.104c1.781,0.58,4.102,2.166,6.187,4.702
					c1.975,2.403,2.519,5.079,1.749,7.316c-0.083,0.242-0.125,0.363-0.209,0.606c-1.028,2.983-3.221,4.43-6.566,4.378
					c-1.831,0.043-2.865,0.03-3.109-0.05c1.917-0.438,3.049-0.923,3.388-1.468c0.013-0.037,0.019-0.056,0.031-0.094
					c-0.021-0.007-0.032-0.011-0.053-0.018c-0.698,0.459-1.585,0.803-2.664,1.033c-1.289,0.161-2.365,0.101-3.233-0.183
					c-0.146-0.048-0.219-0.072-0.364-0.119c-0.265-0.107-0.397-0.161-0.662-0.268c1.465-0.37,2.921-1.05,4.388-2.088
					c1.704-1.409,2.803-2.825,3.282-4.259c0.521-1.558,0.146-2.551-1.123-2.971c-1.588-0.525-3.879-0.311-6.248,0.866
					c-2.497,1.241-4.143,3.163-4.758,5.106c-0.083,0.263-0.125,0.395-0.208,0.658c-0.922,2.914,0.324,7.052,3.594,12.451
					c-0.021,0.063,0.522,1.07,1.613,3.026c4.267,7.76,5.226,14.615,3.166,20.509c-1.735,4.964-5.191,7.904-10.307,8.918
					c-2.381,0.307-4.749,0.074-7.119-0.696c-3.799-1.235-7.38-3.581-10.018-6.976c-2.469-3.178-3.189-6.807-2.192-10.179
					c0.056-0.189,0.084-0.284,0.14-0.473c0.922-3.12,2.947-5.541,6.111-7.229c1.881-0.736,3.502-0.944,4.851-0.63
					c0.041,0.013,0.061,0.019,0.102,0.031c-0.012,0.038-0.018,0.057-0.029,0.094c-0.46-0.073-1.016,0.047-1.667,0.363
					c0.02,0.006,0.03,0.009,0.05,0.015c0.98,0.061,1.927,0.233,2.839,0.518c0.142,0.044,0.213,0.066,0.354,0.111
					c2.061,0.645,3.362,1.7,3.898,3.149c-1.382-0.202-2.377-0.275-2.984-0.226c-3.391,0.549-5.456,2.085-6.22,4.566
					c-0.9,2.921,0.069,5.379,2.874,7.405c0.356,0.251,0.971,0.585,1.788,0.88c2.319,0.836,4.973,0.521,7.639-0.774
					c1.991-1.138,3.314-2.652,3.953-4.552c0.05-0.15,0.076-0.224,0.126-0.374c0.964-2.866,0.495-6.532-1.494-10.99
					c-1.258-2.453-3.02-5.426-5.319-8.908c-3.502-5.892-4.703-10.925-3.43-15.141c1.178-3.901,4.377-6.673,9.669-8.218
					C580.453,186.559,583.084,186.589,585.328,187.32z"/>
				<path d="M619.409,199.415c0.127,0.049,0.19,0.073,0.316,0.122c1.756,0.677,4.002,2.388,5.963,5.037
					c1.857,2.509,2.265,5.213,1.377,7.406c-0.096,0.238-0.144,0.356-0.24,0.594c-1.185,2.924-3.459,4.249-6.812,4.014
					c-1.839-0.057-2.876-0.127-3.116-0.221c1.945-0.332,3.106-0.755,3.474-1.281c0.015-0.037,0.022-0.055,0.036-0.092
					c-0.021-0.008-0.031-0.012-0.052-0.021c-0.724,0.421-1.631,0.716-2.726,0.886c-1.302,0.09-2.378-0.029-3.234-0.36
					c-0.144-0.056-0.216-0.083-0.359-0.139c-0.26-0.122-0.39-0.182-0.65-0.304c1.488-0.29,2.984-0.889,4.509-1.846
					c1.782-1.314,2.957-2.669,3.512-4.076c0.603-1.529,0.278-2.541-0.973-3.03c-1.566-0.612-3.874-0.524-6.312,0.523
					c-2.568,1.103-4.318,2.934-5.035,4.841c-0.097,0.259-0.146,0.388-0.243,0.646c-1.075,2.861-0.04,7.063,2.962,12.637
					c-0.024,0.062,0.469,1.098,1.462,3.112c3.88,7.987,4.489,14.89,2.118,20.666c-1.997,4.865-5.616,7.612-10.799,8.344
					c-2.405,0.176-4.768-0.186-7.105-1.085c-3.747-1.441-7.216-3.98-9.687-7.517c-2.312-3.309-2.846-6.974-1.672-10.289
					c0.066-0.186,0.099-0.279,0.165-0.465c1.086-3.067,3.241-5.375,6.501-6.89c1.924-0.633,3.561-0.753,4.896-0.365
					c0.04,0.015,0.06,0.022,0.1,0.037c-0.014,0.037-0.021,0.056-0.034,0.093c-0.457-0.098-1.021-0.008-1.69,0.272
					c0.02,0.007,0.03,0.011,0.05,0.018c0.98,0.115,1.92,0.338,2.821,0.673c0.14,0.052,0.21,0.078,0.35,0.13
					c2.033,0.757,3.283,1.882,3.747,3.359c-1.376-0.277-2.37-0.405-2.981-0.389c-3.429,0.364-5.58,1.786-6.474,4.222
					c-1.053,2.869-0.209,5.378,2.5,7.555c0.344,0.27,0.943,0.638,1.748,0.977c2.283,0.963,4.96,0.793,7.702-0.355
					c2.056-1.028,3.461-2.468,4.2-4.331c0.058-0.147,0.087-0.22,0.145-0.367c1.115-2.81,0.833-6.499-0.932-11.062
					c-1.136-2.52-2.749-5.587-4.875-9.191c-3.208-6.078-4.152-11.171-2.657-15.314c1.383-3.833,4.734-6.428,10.12-7.684
					C614.559,198.388,617.195,198.562,619.409,199.415z"/>
			</g>
		</g>
		<g>
			<path d="M394.719,404.65c-0.192,0.335-0.514,2.853,0.171,2.105c0.72-0.786,1.458-1.558,2.205-2.322
				c-1.375,2.84-2.368,5.856-2.916,8.957c-0.469,1.504-0.61,2.938-0.475,4.297c-0.006,0.142-0.026,0.283-0.03,0.426
				c-0.107,3.403,1.689,6.619,4.199,7.248c4.695,4.362,12.357,6.832,18.031,6.638c4.16-0.143,8.333-1.169,12.396-2.83
				c0.044,0.006,0.082,0.022,0.132,0.019c6.902-0.512,14.387-7.066,19.972-10.819c4.546-3.055,7.803-8.635,9.807-14.126
				c0.139-0.193,0.281-0.387,0.417-0.579c0.185-0.263,0.33-1.042,0.375-1.804c0.321-1.059,0.6-2.102,0.825-3.105
				c0.042-0.185,0.078-0.374,0.118-0.56c5.284-9.617,6.417-22.073-5.527-25.449c-6.211-1.756-13.255-0.292-19.847,2.185
				c-7.114,2.105-14.229,5.829-20.535,10.536C406.331,390.482,399.227,396.779,394.719,404.65z M407.389,425.214
				c-1.034-0.363-2.729-1.077-4.524-2.04c0.954-1.275,1.278-3.385,0.836-4.832c-0.56-1.833-1.444-2.953-2.512-4.384
				c1.391-1.639,3.053-3.152,4.554-4.566c7.54-7.103,17.507-12.748,27.327-15.901c5.06-1.625,10.691-2.204,15.857-0.752
				c2.327,0.654,5.243,3.273,4.765,5.979c-0.91,5.148-5.484,10.361-9.164,13.804c-4.612,4.315-10.895,6.35-15.455,10.665
				c-0.055,0.052-0.119,0.15-0.186,0.267c-1.48,0.657-2.98,1.261-4.504,1.79C418.614,427.242,413.082,427.211,407.389,425.214z"/>
			<path d="M400.183,412.231C399.985,411.548,400.208,411.356,400.183,412.231L400.183,412.231z"/>
			<path d="M366.788,491.955c-5.004-3.215-10.283-1.906-13.817,1.729c-3.423,0.04-5.425,3.638-6.389,6.621
				c-1.191,3.686-0.863,7.482,1.17,10.76c3.527,5.685,11.883,7.066,17.177,3.227C371.017,509.878,374.042,496.616,366.788,491.955z
				 M352.912,505.849c-0.89-0.588-1.659-1.322-2.287-2.161c0.128-0.07,0.266-0.176,0.426-0.366
				c2.498-2.974,6.433-3.385,10.006-2.329c1.907,0.564,3.337,1.75,4.53,3.299c-0.317,0.443-0.685,0.983-0.847,1.167
				C361.743,508.882,356.375,508.137,352.912,505.849z"/>
			<path d="M555.269,466.251c3.026-16.217-4.357-33.415-18.968-41.55c-6.818-3.796-15.64-2.947-23.042-1.928
				c-8.227,1.133-16.313,3.387-24.122,6.173c-12.552,4.477-26.67,13.098-31.47,26.29c-7.36,1.531-14.838,5.297-21.3,8.234
				c-4.819,2.19-13.657,5.481-17.367,10.703c-0.112-0.007-0.223-0.019-0.336-0.022c-6.348-0.154-9.911,8.137-9.805,14.506
				c-3.668,1.512-7.332,3.031-11.245,3.9c-4.536,1.008-9.484,1.239-14.116,1.257c-0.19,0.001-0.381,0-0.572,0
				c1.609-3.341,3.492-6.601,5.852-9.43c0.134-0.161,0.273-0.292,0.408-0.441c3.004,1.057,8.256,0.202,10.723,0.051
				c0.783-0.048,1.492-0.197,2.142-0.421c0.245,0.239,0.573,0.194,0.953-0.402c2.587-1.344,3.97-4.149,4.515-7.318
				c0.05-0.292,0.081-0.574,0.116-0.858c4.044-6.303,8.83-11.77,14.681-17.091c8.366-7.607,17.473-14.343,25.773-22.034
				c7.788-7.215,14.683-15.375,18.848-25.23c2.587-6.121,4.665-14.268,4.329-21.732c0.695-8.298-1.126-16.733-8.996-21.099
				c-10.6-5.881-25.648-1.858-36.303,1.672c-5.673,1.879-11.129,4.651-16.166,8.086c-11.615,3.169-18.839,13.843-22.395,25.335
				c-2.034,4.452-3.342,9.221-3.813,14.106c-0.372,3.858-0.199,10.542,2.172,14.782c0.049,4.495-4.729,8.713-8.31,10.932
				c-1.285,0.796-2.713,0.709-3.912,1.79c-2.374,2.138-3.425,5.104-4.548,8.013c-2.189,5.668-0.812,10.462,0.112,15.847
				c-6.723,3.688-13.077,8.094-19.166,12.914c-0.187,0.088-0.374,0.177-0.56,0.267c-8.086-2.892-19.4,0.682-27.039,2.878
				c-10.356,2.976-20.285,7.804-30.015,12.358c-11.769,5.508-23.719,10.556-35.544,15.937c-13.049,5.939-26.204,12.285-37.878,20.68
				c-7.746,5.57-17.201,14.443-14.072,25.13c0.165,0.562,0.577,0.819,1.124,0.672c1.68-0.453,3.068-0.77,4.487-1.569
				c-0.107,0.662-0.027,1.248,0.44,1.17c14.297-2.406,28.814-6.07,42.726-10.195c6.732-1.996,13.27-4.62,19.885-6.96
				c2.847-1.007,5.684-1.817,8.536-2.533c-14.782,14.373-29.141,29.177-40.954,46.114c-0.216,0.31-0.485,2.294,0.061,2.01
				c-0.547,1.632-0.568,3.632-0.263,4.852c0.9,3.599,5.475,3.236,8.349,3.065c11.344-0.674,21.327-5.557,31.263-10.666
				c17.057-8.77,33.264-19.093,49.325-29.545c14.404-9.374,30.22-19.233,42.389-31.646c0.024,0.136,0.032,0.276,0.06,0.41
				c0.626,3.019,2.556-1.407,2.666-2.41c0.078-0.718,0.181-1.431,0.279-2.145c12.128-5.096,26.902-2.787,39.482-6.319
				c0.007,0.063,0.014,0.131,0.023,0.184c1.643,9.209,11.855,8.739,17.336,3.143c1.361-1.389,2.462-3.037,3.336-4.829
				c0.842-0.629,1.698-1.237,2.601-1.81c3.926-2.493,8.104-4.698,12.275-6.747c4.075-2.003,8.273-3.661,12.57-5.116
				c1.556-0.527,3.174-0.997,4.811-1.177c0.992,0.376,2.292,0.406,3.096,0.443c2.865,0.132,5.779,0.878,8.608,1.33
				c6.06,0.969,13.271,1.606,19.4,1.046c6.732-0.615,13.357,0.111,20.075-1.246c2.519-0.509,4.945-1.422,7.278-2.592
				c0.118,0.3,0.315,0.482,0.627,0.469c6.868-0.29,13.854-5.71,18.74-10.224C550.944,480.647,553.924,473.461,555.269,466.251z
				 M386.699,447.087c2.527-2.359,4.183-5.316,5.061-8.64c0.093-5.099-1.524-9.957-2.535-15.065
				c-1.038-5.242-0.422-10.509,0.872-15.641c0.008-0.033,0.023-0.06,0.033-0.092c0.587-2.916,1.461-5.764,2.646-8.448
				c1.161-1.64,2.402-3.211,3.668-4.703c3.879-4.568,8.387-8.525,13.328-11.841c0.407-0.147,0.816-0.292,1.236-0.423
				c0.298-0.092,0.564-0.43,0.784-0.882c4.935-3.065,10.257-5.513,15.803-7.282c9.186-2.93,20.104-5.164,29.562-2.205
				c5.749,1.799,8.815,5.536,10.243,10.101c-0.128,0.495-0.203,0.906-0.197,1.062c0.207,5.563,0.918,11.028-0.135,16.552
				c-0.889,4.665-3.06,8.938-5.608,12.898c-5.592,8.688-13.578,15.705-21.348,22.383c-11.359,9.763-25.02,20.362-33.029,33.781
				c-0.122-0.359-0.26-0.708-0.411-1.049c1.631-2.653,3.076-5.428,4.961-7.953c2.961-3.967,6.491-7.515,10.04-10.95
				c6.326-6.123,13.236-11.614,19.869-17.393c0.563-0.491,0.817-3.306-0.051-2.596c-7.517,6.152-15.269,12.003-22.373,18.644
				c-5.174,4.837-11.061,10.804-14.074,17.526c-4-5.21-11.705-8.002-18.419-10.242c-1.035-2.847-4.249-2.447-6.716-1.338
				C381.352,450.925,384.855,448.809,386.699,447.087z M376.006,457.503c0.427-0.51,0.85-1.026,1.276-1.539
				c-0.036,0.241-0.058,0.485-0.065,0.712c0.713-0.508,1.608-0.747,2.443-0.464c0.364,0.123,0.746,0.253,1.125,0.381
				c0.316-0.051,0.639-0.089,0.973-0.108c0.246-0.014,0.489,0.002,0.731,0.03c0.065,0.182,0.161,0.326,0.303,0.395
				c1.242,0.605,2.682,1.233,4.212,1.903c3.121,1.21,6.308,2.653,9.119,4.46c4.153,2.456,7.674,5.516,8.672,9.611
				c-0.111,0.229-0.208,0.465-0.316,0.696c0.242,1.323-0.349,2.372-1.264,2.984c-0.082,0.215-0.175,0.425-0.254,0.641
				c-1.219,0.173-2.754-0.095-4.042-0.417c0.08-0.173,0.152-0.356,0.223-0.541c-0.278-0.315-0.504-0.712-0.647-1.207
				c-0.449-1.551-1.357-2.805-2.493-3.878c-0.036,0.003-0.072-0.001-0.108,0.003c-0.013-0.05-0.034-0.098-0.047-0.148
				c-1.692-1.544-3.856-2.705-5.802-3.817c-3.003-1.716-6.14-2.973-9.364-4.117c-1.307,2.083-3.959,1.563-5.129-0.001
				c-0.095,0.217-0.191,0.434-0.279,0.648c0.025-0.328,0.035-0.657,0.054-0.986c-0.438-0.788-0.522-1.774,0.046-2.813
				c0.027-0.069,0.055-0.138,0.082-0.207c0.01-0.403,0.024-0.806,0.033-1.21c0.004-0.125,0.01-0.25,0.014-0.375
				C375.648,457.946,375.809,457.739,376.006,457.503z M275.892,533.435c-6.676,2.326-13.17,5.137-19.833,7.5
				c-14.446,5.124-30.3,7.117-43.849,14.492c0.149-0.622,0.139-1.244-0.213-1.546c-1.077-0.923-2.19-1.613-3.399-2.228
				c0.129-0.205,0.251-0.41,0.389-0.615c1.226-1.815,2.938-3.342,4.561-4.79c4.428-3.952,9.572-7.101,14.675-10.089
				c11.157-6.532,22.984-11.924,34.825-17.081c10.891-4.743,21.715-9.548,32.517-14.497c8.905-4.08,17.928-7.684,27.239-10.723
				c3.871-1.264,7.829-2.272,11.835-3.004c-1.625,1.224-3.231,2.478-4.824,3.747c-9.879,7.873-18.983,16.688-28.034,25.483
				c-3.073,2.986-6.169,5.958-9.267,8.932C286.871,529.405,281.1,531.62,275.892,533.435z M380.145,490.922
				c-0.683,1.47-1.321,2.958-1.922,4.46c-1.755,4.39-3.175,8.866-4.376,13.4c-0.445,1.679-0.904,3.476-1.264,5.311
				c-0.207,0.179-0.417,0.354-0.616,0.543c-0.427,0.407-0.851,1.929-1.043,3.385c-4.648,3.899-9.14,7.987-13.96,11.7
				c-7.087,5.46-14.467,10.531-21.916,15.48c-13.424,8.918-27.074,17.7-41.027,25.767c-9.972,5.765-20.755,11.523-31.952,14.489
				c-3.858,1.022-7.78,1.971-11.737,2.512c-1.801,0.246-3.664,0.288-5.449-0.076c-2.152-0.439-1.716,0.067-1.162-1.889
				c1.162-1.492,2.34-2.97,3.535-4.434c18.073-16.915,35.731-34.307,53.634-51.406c1.833-1.751,3.674-3.495,5.522-5.231
				c2.591-2.083,5.19-4.152,7.798-6.202c21.74-17.087,44.822-34.046,71.302-42.896c0.333-0.111,0.648-0.312,0.948-0.572
				c0.27,0.395,0.541,0.786,0.806,1.185c0.136,0.206,0.277,0.414,0.421,0.623c-0.207,0.435-0.382,0.917-0.518,1.416
				C383.815,483.215,381.109,488.844,380.145,490.922z M421.018,502.343c-1.26,0.437-2.575,0.988-3.86,1.622
				c-0.216-0.222-0.492-0.32-0.84-0.239c-7.891,1.833-16.062,2.365-24.071,3.485c-5.105,0.714-10.822,1.696-15.582,4.148
				c0.888-3.71,2.038-7.352,3.415-10.927c0.583,0.18,1.235,0.319,1.92,0.49c4.74,1.184,9.761,1.746,14.609,0.956
				c4.223-0.689,8.269-2.058,12.292-3.481c1.807-0.639,3.578-1.379,5.366-2.07c0.505-0.195,0.895-0.434,1.232-0.69
				c1.394-0.468,3.591-0.907,4.347,0.418c1.004,1.761,1.659,3.61,2.156,5.569c0.03,0.118,0.045,0.229,0.071,0.345
				C421.728,502.079,421.373,502.22,421.018,502.343z M429.367,509.09c-1.534,0.914-3.209,1.17-4.916,1.009
				c0.18-0.159,0.341-0.354,0.455-0.555c3.354-5.911,2.001-16.485-3.353-20.989c-0.196-0.219-0.427-0.267-0.694-0.146
				c-0.397,0.232-0.804,0.444-1.212,0.653c0.103-1.095-0.106-2.034-0.874-2.349c-0.21-0.022-0.369-0.115-0.476-0.28
				c-0.245-0.649-0.607-1.029-1.314-0.815c-1.641,0.497-3.247,1.084-4.838,1.708c0.93-4.714,6.553-3.907,10.007-1.053
				c3.641,3.008,6.488,7.163,8.936,11.155C433.934,502.071,434.451,506.061,429.367,509.09z M435.198,489.946
				c-2.28-4.312-6.12-10.652-10.898-13.83c0.644-0.387,1.183-0.703,1.512-0.847c5.373-2.348,10.67-4.753,16.183-6.777
				c5.112-1.877,10.298-3.678,15.585-4.996c1.539-0.384,3.932-0.293,4.839-1.768c1.066-1.735,1.598-3.741,1.212-5.757
				c-0.048-0.249-0.172-1.061-0.529-1.321c1.377-1.511,2.83-2.968,4.318-4.335c4.843-4.448,11.069-7.23,17.097-9.661
				c12.432-5.012,26.643-8.772,40.125-7.755c9.172,0.692,17.22,6.996,22.161,15.009c0.005,0.313,0.045,0.569,0.131,0.704
				c3.797,6.027-0.301,10.59-5.139,14.342c-3.172,2.46-6.568,4.665-10.179,6.414c-12.36,5.987-25.417,4.906-38.649,3.548
				c-6.476-0.664-12.9-1.391-19.411-0.782c-5.516,0.516-10.664,2.812-15.804,4.724C450.156,479.687,440.588,483.265,435.198,489.946
				z M542.173,479.146c-5.008,1.272-8.654,4.883-12.78,7.718c-4.752,3.265-10.526,4.182-16.124,5.017
				c-3.384,0.505-8.121,2.013-11.504,0.63c-2.965-1.212-5.88-2.393-8.938-3.372c-6.532-2.091-12.64-4.11-19.574-2.972
				c-0.416,0.068-0.835,0.182-1.251,0.321c-4.638-2.523-23.644,5.501-34.267,14.783c0.044-1.979-0.136-3.947-0.544-5.828
				c8.217-5.416,17.9-8.26,27.115-11.679c7.458-2.767,15.553-1.938,23.282-1.079c8.033,0.893,15.714,1.228,23.778,0.391
				c12.056-1.25,23.411-6.344,31.699-15.209c2.519-2.694,5.948-7.34,7.426-11.989c0.531,1.664,0.927,3.345,1.171,5.016
				C552.91,469.439,548.186,474.75,542.173,479.146z"/>
			<path d="M375.05,458.784C374.75,459.605,374.54,459.587,375.05,458.784L375.05,458.784z"/>
			<path d="M422.998,509.788c0.009,0.03,0.024,0.045,0.034,0.073c-0.064-0.019-0.129-0.038-0.191-0.06
				c0.041-0.046,0.083-0.093,0.124-0.143C422.978,509.702,422.985,509.744,422.998,509.788z"/>
			<path d="M484.889,460.378c0.266,4.85,5.008,6.81,9.066,8.288c5.922,2.157,12.497,1.399,18.674,1.75
				c5.76,0.327,11.086,1.28,16.339-1.738c4.952-2.845,7.518-8.253,8.232-13.752c0.931-7.172-1.263-13.192-7.67-16.805
				c-5.867-3.308-12.807-2.875-19.286-2.417c-7.184,0.508-15.34,0.759-20.76,6.097c-4.181,4.118-5.569,10.689-4.21,16.355
				C485.028,459.224,484.877,460.164,484.889,460.378z M533.334,456.013C533.382,455.805,533.4,455.834,533.334,456.013
				L533.334,456.013z M533.179,456.343c-0.056,0.1-0.125,0.209-0.212,0.327c-0.633,0.859-1.443,1.618-2.272,2.283
				c-1.823,1.461-4.033,2.483-6.054,3.636c-4.988,2.845-10.55,4.706-16.295,4.742c-4.452,0.028-9.343-1.934-13.311-3.793
				c-2.479-1.162-3.807-2.651-4.935-4.368c0.159-1.283,0.101-2.578,0.047-3.872c4.381-2.734,10.75-2.697,15.627-2.91
				C509.682,452.217,532.244,449.796,533.179,456.343z"/>
		</g>
		<path d="M344.901,426.944c-0.044-5.652-0.16-11.303-0.207-16.954c-0.05-6.064-0.241-12.125-0.474-18.185
			c-0.153-3.968,0.069-8.197-0.58-12.185c-0.383-7.738-4.739-14.861-9.957-21.062c-3.965-4.711-7.818-9.679-10.416-15.298
			c-1.669-3.609-2.422-7.339-2.832-11.161c0.118-0.048,0.239-0.098,0.357-0.145c1.75-0.7,3.891-1.589,5.58-2.857
			c0.236,0.204,0.516,0.323,0.847,0.315c1.511-0.037,1.793-2.556,1.849-3.997c0.24-0.952,0.348-2.316-0.031-3.286
			c-0.067-1.937-0.197-3.877-0.296-5.804c-0.076-1.476-0.19-2.944-0.216-4.423c-0.009-0.511-0.017-0.996,0.007-1.506
			c0.022-0.435,0.031-0.871,0.026-1.307c-0.005-0.171-0.011-0.303-0.018-0.417c0.178-0.83,0.202-2.602-0.453-2.529
			c-0.161-0.622-0.482-1.076-1.047-1.107c-0.461-0.025-0.927,0.006-1.395,0.059c-0.207-0.706-0.497-1.315-0.829-1.687
			c-1.179-1.317-2.719-2.189-3.888-3.561c-1.158-1.358-2.093-3.052-2.856-4.659c-1.091-2.3,0.106-5.993,0.128-8.452
			c0.039-4.286-1.11-12.171-7.317-9.752c-4.574,1.782-5.546,8.327-6.542,12.449c-0.994,4.115-1.179,10.246-5.551,12.31
			c-0.198,0.094-0.36,0.255-0.493,0.457c-1.08-0.009-2.165,0.055-3.257,0.219c-1.392,0.209-1.649,2.43-1.752,3.492
			c-0.282,2.901-0.079,5.772,0.067,8.673c0.152,3.044-0.402,5.519-1.061,8.449c-0.116,0.517-0.216,2.441,0.646,2.498
			c0.497,0.033,0.922-0.168,1.292-0.506c1.457,4.37,4.632,7.253,8.54,8.747c-0.498,3.326-1.254,6.525-2.81,9.795
			c-2.171,4.562-5.068,8.724-8.27,12.611c-5.566,6.757-13.363,14.238-12.795,23.758c0.024,0.399,0.193,0.953,0.409,1.327
			c-0.559,3.606-0.42,7.415-0.502,11.009c-0.125,5.466-0.301,10.931-0.451,16.397c-0.146,5.33-0.268,10.665-0.317,15.997
			c-0.045,4.97-0.67,10.103,0.697,14.949c0.275,0.976,0.994,2.037,1.737,2.353c0.075,0.106,0.158,0.142,0.245,0.075
			c0.293,0.056,0.582-0.014,0.843-0.272c0.915,1.097,1.784,3.04,2.293,3.793c0.993,1.469,2.152,2.79,3.377,4.069
			c1.914,1.998,4.023,3.477,6.518,4.667c5.772,2.752,12.329,1.56,18.445,1.69c6.962,0.149,14.238,0.821,20.762-2.123
			c2.474-1.116,4.712-3.201,6.66-5.048c1.683-1.596,3.504-3.152,3.885-5.591c0.04-0.254,0.094-0.888,0.104-1.644
			c0.221-0.345,0.413-0.784,0.554-1.314C345.297,435.99,344.936,431.34,344.901,426.944z M306.562,297.865
			c1.341-4.2,1.735-9.933,4.549-13.469c0.962-1.208,3.806-1.634,3.969,0.369c0.258,3.164-0.362,6.433-0.46,9.602
			c-0.107,3.461,1.089,7.073,2.486,10.181c0.151,0.336,0.336,0.709,0.547,1.099c-1.995-0.256-3.997-0.688-5.926-1.099
			c-2.362-0.504-4.723-1.123-7.099-1.6C305.536,301.174,306.143,299.175,306.562,297.865z M296.322,319.555
			c0.017-0.103,0.033-0.201,0.046-0.286c0.398-2.507,0.375-5.053,0.451-7.592c5.331-0.287,10.792,1.293,16,2.123
			c3.806,0.607,9.058,0.929,12.53-1.345c-0.052,0.705-0.091,1.402-0.138,2.074c-0.151,2.162-0.164,4.342-0.141,6.52
			c-1.262,0.402-2.555,1.083-3.592,1.426c-3.221,1.064-6.334,1.528-9.717,1.639c-3.086,0.102-5.83,0.086-8.833-0.77
			c-1.437-0.41-2.724-1.048-3.978-1.854C298.03,320.9,297.256,320.079,296.322,319.555z M339.781,439.068
			c-0.648,0.852-1.287,1.612-2.094,2.318c-2.044,1.789-4.122,3.514-6.618,4.627c-6.005,2.677-13.745,1.238-20.068,0.893
			c-5.431-0.296-11.218-0.866-16.373-2.701c-4.294-1.529-8.205-3.908-11.772-6.729c0.526-3.602,0.257-7.222,0.224-10.916
			c-0.048-5.272-0.192-10.539-0.277-15.811c-0.088-5.472-0.394-10.941-0.476-16.412c-0.073-4.852,0.23-10.159-0.926-14.894
			c-0.088-0.359-0.289-0.754-0.526-1.013c2.8-8.144,10.996-13.526,16.241-20.061c5.333-6.645,8.974-15.043,9.441-23.606
			c1.289,0.198,2.614,0.276,3.95,0.23c2.524-0.086,5.05-0.946,7.469-1.902c0.299,8.488,2.723,16.815,7.265,24.076
			c3.166,5.062,7.205,9.491,10.894,14.163c1.493,1.891,2.974,3.688,4.01,5.884c0.35,0.741,0.59,1.492,0.744,2.25
			c-0.602,3.63-0.329,7.589-0.453,11.13c-0.217,6.185-0.452,12.368-0.503,18.556c-0.047,5.704-0.164,11.407-0.208,17.112
			c-0.032,4.126-0.24,8.315,0.49,12.382C340.011,438.827,339.84,438.99,339.781,439.068z"/>
		<path d="M698.048,301.087c-0.885-3.806-2.7-5.191-3.907-8.486c-1.187-3.24-3.335-6-5.488-8.636
			c-2.162-2.648-6.081-8.909-9.03-10.354c-0.184-0.126-0.385-0.209-0.575-0.321c-4.243-3.057-9.231-4.884-14.523-6.04
			c-0.332-0.301-0.657-0.594-1.009-0.921c-2.398-2.223-5.3-3.594-8.362-4.175c1.743-2.966,3.102-6.165,3.773-9.997
			c2.345-13.39,4.444-27.004,4.378-40.627c-0.04-8.126-1.644-17.45-7.186-23.762c-7.605-8.661-18.938-9.763-25.84-19.042
			c-6.055-8.14-16.416-10.783-25.818-13.103c-11.236-2.772-21.959-5.986-32.872-9.877c-12.25-4.368-23.839-6.544-36.78-7.982
			c-6.882-0.765-13.82-1.629-20.74-1.894c-7.002-0.268-13.013,1.694-20.066-0.374c-8.856-2.596-15.777-9.898-25.051-11.673
			c-14.244-2.726-30.161-1.421-44.672-1.987c-29.671-1.158-59.385-2.177-89.077-1.309c-14.382,0.42-28.257,1.436-42.646,0.856
			c-12.91-0.52-22.021,5.069-33.922,8.46c-4.967,1.415-10.391,1.551-15.467,2.624c-5.513,1.166-10.858,4.216-16.271,5.796
			c-13.044,3.808-26.067,8.238-39.823,7.538c-0.193,0.018-0.35,0.104-0.469,0.258c-1.351,2.105-8.784,9.107-11.403,4.562
			c-0.295-0.512-0.686-0.861-1.285-0.628c-12.656,4.903-25.778,8.685-38.055,14.5c-12.491,5.916-25.031,10.77-37.69,16.227
			c-10.703,4.614-20.533,10.564-30.299,16.91c-8.112,5.271-15.426,11.565-16.5,21.684c-0.478,4.505,4.493,13.08,6.671,7.039
			c2.188,8.779,6.827,17.128,11.21,25.257c-0.663,0.361-1.373,0.823-2.13,1.364c-5.994,4.285-12.149,8.609-18.313,12.61
			c-5.727,3.717-12.407,4.492-17.811,8.918c-5.437,4.453-11.085,10.996-13.693,17.509c-0.385,0.961-0.684,3.691,0.527,4.379
			c-0.22,2.451-0.058,4.86,0.567,5.906c5.41,9.056,11.456,18.045,15.143,27.9c0.629,1.682,1.186,3.384,1.706,5.095
			c1.291,5.786,2.308,11.648,3.423,17.521c-0.182,3.792-0.335,7.575,0.188,11.346c0.407,2.939,1.151,6.955,2.957,9.89
			c0.325,1.906,0.872,3.756,1.692,5.5C49.364,392,59.441,392.88,70.744,397.764c6.659,2.877,11.558,8.93,18.67,11.622
			c5.349,2.025,11.45,3.308,16.682,0.515c1.046-0.558,1.487-2.198,1.399-3.787c1.437-2.17,1.288-6.361,1.11-8.081
			c-0.109-1.05-0.454-2.211-1.043-3.157c0.105,0.098,0.196,0.183,0.312,0.291c-0.284-1.312-0.665-2.595-1.143-3.85
			c-1.884-5.617-4.029-10.826-7.578-15.644c-4.751-6.451-11.776-12.084-14.49-19.794c-1.442-4.096,1.832-8.242,5.645-11.734
			c7.808,0.112,15.508,2.132,23.146,3.606c3.548,0.685,7.062,1.538,10.603,2.257c1.946,0.396,3.907,0.331,5.869,0.137
			c11.221,3.083,19.794,0.168,25.876-6.482c0.488-0.437,0.903-0.935,1.272-1.469c2.917-3.651,5.197-8.217,6.851-13.41
			c5.97-18.742,4.667-36.261-5.064-52.1c5.034-3.396,10.667-5.285,16.958-6.773c11.012-2.604,21.575-4.351,32.439-7.764
			c12.597-3.958,24.887-8.102,37.819-10.835c12.223-2.584,24.762-3.433,37.12-5.146c13.27-1.84,26.395-4.377,39.707-6.001
			c6.013-0.733,12.042-1.23,18.09-1.555c3.665-0.197,7.382,2.292,10.987,2.313c3.764,0.022,7.524,0.084,11.287,0.183
			c12.367,0.328,24.836-0.481,37.116,0.675c13.519,1.272,27.007,2.859,40.514,4.245c13.582,1.394,26.267,4.219,40.036,4.273
			c12.136,0.047,24.166,2.016,36.015,4.441c12.279,2.514,25.677,3.118,36.884,8.86c3.574,1.831,7.145,3.321,11.114,4.069
			c3.19,0.601,6.118,1.623,8.997,2.771c-3.078,3.712-5.906,9.465-6.565,10.882c-2.749,5.918-4.003,12.332-4.711,18.77
			c-0.925,8.411,1.692,17.006,3.987,25.021c4.739,16.549,16.354,27.751,34.666,22.366c0.971,0.089,1.945,0.157,2.93,0.176
			c4.407,0.086,9.086-1.61,13.375-2.491c3.443-0.707,6.893-1.451,10.358-2.083c5.612,1.481,10.975,4.34,15.719,7.426
			c10.318,6.714,9.717,12.691,4.149,22.341c-4.477,7.758-10.144,15.247-16.843,21.221c-1.201,1.071-4.891,3.154-4.661,5.446
			c-0.847,3.062-0.7,8.401,1.768,7.976c10.733-1.848,19.51-0.519,29.634-5.602c7.992-4.013,15.119-8.038,20.418-14.911
			c0.406,0.336,0.865,0.263,1.274-0.633c1.828-4.005,6.414-4.525,7.722-9.448c0.214-0.806,0.357-2.063,0.47-3.57
			c2.537-2.456,3.596-6.925,4.092-10.071c0.52-3.301,0.553-6.587,0.464-9.88c1.443-0.945,1.91-3.024,2.201-4.663
			c2.146-12.087,3.175-23.739,3.76-35.961C698.326,309.109,698.88,304.667,698.048,301.087z M98.101,396.35
			c0.367,0.941,0.692,2.22,1.072,3.572c-5.508-1.993-11.48-3.552-16.77-4.946c-5.787-1.525-10.639-2.804-15.325-6.719
			c-3.463-2.893-6.41-6.413-9.848-9.379c-2.605-2.247-5.072-4.449-7.295-7.084c-0.288-0.342-0.502-0.685-0.666-1.029
			c0.088-0.121,0.178-0.263,0.27-0.441c1.001-1.937,1.522-3.501,1.866-5.692c0.335-2.131,0.83-3.944,1.478-5.552
			c1.648-2.841,3.564-5.344,5.733-7.622c1.182-0.993,2.497-1.958,3.982-2.954c4.858-3.259,12.173-3.89,18.738-4.135
			c-6.053,9.559-3.307,22.391,2.912,31.336C88.96,382.479,95.063,388.556,98.101,396.35z M130.099,345.57
			c-7.409-3.34-14.802-8.425-21.578-11.814c-9.212-4.607-20.093-4.687-29.898-2.449c-5.179,1.183-9.785,4.412-14.122,7.864
			c-9.158,1.818-16.92,9.774-20.656,19.039c-0.854-16.865-2.821-35.066-11.939-48.932c-1.659-5.042-3.752-9.907-6.554-14.444
			c2.404-1.892,4.497-4.683,6.355-6.704c6.327-6.887,9.727-15.277,19.721-17.194c6.895-1.323,19.419-2.5,22.722-9.782
			c0.575,1.226,1.122,2.449,1.624,3.67c4.801,11.667,9.453,23.219,18.09,32.684c0.072,0.898,0.205,1.645,0.382,2.015
			c5.61,11.729,18.927,14.806,30.872,11.917c6.076-1.469,11.257-2.792,16.744,0.843c5.418,3.591,14.794,15.745,9.634,22.263
			c-0.646,0.816-1.068,3.141-1.031,5.41C144.725,343.946,136.988,344.578,130.099,345.57z M160.249,315.721
			c-0.32,4.037-0.682,7.918-1.679,11.637c-1.614-7.505-8.419-12.059-12.9-17.79c-4.422-5.656-11.86-8.787-18.685-10.336
			c-2.301-0.522-4.836-0.828-7.457-1.098c7.436-3.099,14.678-6.953,21.996-9.858c4.243-1.685,7.587-3.086,10.784-5.999
			C158.06,293.031,161.227,303.389,160.249,315.721z M549.018,256.779c-6.308-2.888-14.052-3.84-20.774-5.472
			c-24.23-5.881-47.581-14.047-72.82-13.445c-13.59,0.324-27.007-1.588-40.503-3.014c-14.835-1.567-29.631-4.793-44.467-5.503
			c-26.935-1.289-53.424,6.854-80.307,9.173c-24.099,2.08-52.495-2.952-74.348,9.743c-5.055,2.937-9.916,6.197-14.968,9.143
			c-6.407,3.735-14.714,4.548-21.903,5.826c-5.355,0.952-10.764,1.208-16.129,2.106c-3.681,0.616-12.591,0.976-15.525,3.284
			c-12.106,9.523-24.44,19.812-37.447,28.269c-0.112-0.593-0.324-1.155-0.719-1.562c-1.45-1.491-3.452-1.081-5.01-2.479
			c-2.662-2.389-5.192-5.064-7.498-7.794c-6.605-7.82-12.972-16.639-18.54-25.215c-5.988-9.225-7.667-20.672-11.872-30.984
			c-1.172-2.873-3.073-6.072-4.691-9.346c4.537-4.928,12.796-8.82,17.253-11.498c10.475-6.294,19.387-14.478,30.235-20.212
			c10.726-5.67,20.349-12.574,30.8-18.67c5.38-3.138,11.745-4.908,17.609-6.892c2.77-0.937,16.09-7.842,18.28-5.148
			c0.202,0.249,0.569,0.379,0.861,0.199c2.562-1.577,6.094-2.527,8.286-4.607c4.12-3.909,9.191-3.432,14.614-4.078
			c11.692-1.392,22.662-6.005,34.196-8.043c9.985-1.764,19.111,2.144,28.445-2.245c5.118-2.406,9.272-6.52,14.407-8.987
			c7.29-3.502,15.157-2.758,22.889-1.952c26.735,2.785,53.774,2.504,80.583,5.1c28.687,2.778,57.544,3.549,86.336,4.399
			c5.288,0.156,9.452,0.45,14.426,2.513c4.176,1.732,8.38,4.12,12.878,4.919c4.431,0.787,7.895,0.362,12.137-0.857
			c7.513-2.16,14.492-1.19,22.131-0.527c13.72,1.191,27.002,2.434,39.925,7.511c11.178,4.392,21.488,10.752,32.722,15.17
			c9.782,3.847,21.29,7.432,26.693,17.067c5.338,9.518,15.941,9.792,23.458,16.821c2.262,2.115,3.508,4.975,4.127,8.189
			c-0.109,3.766,0.226,7.678,0.219,10.924c-0.593,5.786-1.935,11.533-2.587,15.708c-1.102,7.062-1.874,13.787-4.701,20.411
			c-1.804,4.226-2.926,8.363-3.662,12.9c-0.007,0.044-0.007,0.104-0.011,0.156c-3.434,6.331-7.533,12.404-12.042,17.626
			c-0.912,1.056-2.503,2.682-4.028,4.559c-0.892,0.412-1.801,0.79-2.747,1.063c-0.545,0.157-1.07,0.308-1.59,0.459
			c-7.13-9.341-16.797-14.183-29.397-18.516c-8.804-3.027-17.913-7.38-26.95-9.315C560.554,262.214,555.221,259.619,549.018,256.779
			z M576.716,284.103c1.368-2.922,3.484-6.305,4.664-9.378c0.173-0.452,0.256-0.804,0.3-1.119c0.544,0.212,1.087,0.425,1.641,0.626
			c14.153,5.142,26.573,8.951,35.709,18.702c-2.625,0.917-5.122,2.018-7.848,3.742c-5.699,3.605-11.833,12.472-19.073,11.997
			c-3.806-0.25-7.104,1.106-10.541,2.587c-5.273,2.271-8.522,6.945-9.889,12.263c-0.507-2.405-0.78-4.868-0.964-7.253
			C569.788,304.199,571.529,295.181,576.716,284.103z M665.878,388.696c-8.29,3.787-18.024,2.637-26.76,4.074
			c2.229-2.882,4.145-5.771,5.436-7.5c4.518-6.051,13.061-15.579,13.797-23.459c0.935-10.014-4.354-13.545-12.117-18.2
			c-0.821-0.492-2.041-1.215-3.506-2.028c0.224,0.002,0.448-0.011,0.672-0.007c7.849,0.152,18.089,0.284,24.965,4.363
			c2.805,1.664,5.259,3.434,7.134,5.675c0.074,0.535,0.196,0.974,0.376,1.195c0.794,0.976,1.476,1.962,2.095,2.951
			c0.474,1.171,0.857,2.43,1.074,3.855c0.449,2.945,0.957,5.515,2.322,8.173c0.045,0.088,0.087,0.144,0.131,0.217
			C681.216,376.651,675.201,384.437,665.878,388.696z M692.765,316.302c-1.065,7.931-2.76,15.861-4.369,23.693
			c-0.767,3.736-1.661,7.101-0.468,10.662c-0.212,1.727-0.432,3.446-0.839,5.078c-0.775,3.11-1.625,6.044-2.155,9.041
			c-0.34-5.144-1.951-10.118-4.99-14.182c-0.83-2.278-2.107-4.424-4.415-6.389c-6.664-5.677-14.972-13.499-23.685-15.483
			c-8.854-2.015-18.623-2.332-27.177,1.329c-7.933,3.394-15.861,9.227-24.04,12.938c-8.314-1.199-16.602-1.85-22.869-7.78
			c-0.537-2.6,1.331-4.707,4.784-9.189c5.66-7.347,11.493-12.974,20.735-14.928c9.409-1.989,22.678-2.308,30.232-8.761
			c5.837-3.966,11.499-14.851,13.319-18.272c1.573-2.955,2.763-6.141,3.754-9.425c3.518,2.505,6.479,2.67,11.957,1.997
			c0.817-0.1,1.548-0.092,2.241-0.038c1.603,0.735,3.201,1.507,4.756,2.414c0.573,0.334,1.176,0.659,1.763,0.988
			c2.36,2.42,4.282,5.348,7.869,6.111C693.694,289.196,694.384,304.248,692.765,316.302z"/>
	</g>
	<g>
	</g>
	<g>
	</g>
	<g>
	</g>
	<g>
	</g>
	<g>
	</g>
	<g>
	</g>
</g>
</svg>
